<svg width="100" height="100" viewBox="0 0 100 100" fill="none" xmlns="http://www.w3.org/2000/svg">
<rect width="100" height="100" fill="white"/>
<path fill-rule="evenodd" clip-rule="evenodd" d="M68.3002 50.6974L68.2702 41.6413C68.2702 40.7229 67.5212 39.9838 66.6 39.9838C66.2556 39.9838 65.9334 40.0885 65.6712 40.2676L57.9195 44.7695C57.1256 45.2324 56.8635 46.2477 57.3203 47.0316C57.4777 47.3004 57.6948 47.502 57.9495 47.6439L65.8136 52.1307C66.6074 52.5862 67.6262 52.3099 68.0829 51.5186C68.2253 51.2647 68.2927 50.9737 68.3002 50.6974Z" fill="#00362E"/>
<path fill-rule="evenodd" clip-rule="evenodd" d="M35.0996 61.3061L45.5253 67.2562C46.5813 67.861 47.9219 67.4952 48.5286 66.4425C48.7534 66.0467 48.8432 65.6138 48.8132 65.1882L48.7683 53.3698C48.7607 52.1603 47.7721 51.1822 46.5588 51.1897C46.1469 51.1897 45.7649 51.3018 45.4428 51.5032L35.0922 57.5133C34.0436 58.118 33.684 59.4618 34.2982 60.5072C34.5005 60.8505 34.7776 61.1193 35.0996 61.3061Z" fill="#00362E"/>
<path fill-rule="evenodd" clip-rule="evenodd" d="M45.7781 24.91L34.8508 31.2485C33.7423 31.8906 33.3678 33.3016 34.0119 34.4065C34.2516 34.8172 34.6036 35.1308 35.008 35.3249L45.8382 41.5065C46.9466 42.1337 48.3621 41.7529 48.9913 40.648C49.201 40.2747 49.2983 39.8716 49.2983 39.4683L49.2535 26.8959C49.2535 25.6267 48.2124 24.5964 46.939 24.5964C46.5121 24.6039 46.1152 24.7159 45.7781 24.91Z" fill="#00362E"/>
<path fill-rule="evenodd" clip-rule="evenodd" d="M72.5388 26.4479L56.9978 17.5784C55.4251 16.6825 53.4178 17.2275 52.5191 18.7953C52.182 19.3851 52.0472 20.0347 52.0921 20.6618L52.1596 38.2887C52.1669 40.0881 53.6425 41.5438 55.4474 41.5364C56.0541 41.5364 56.6233 41.3647 57.1102 41.0736L72.5464 32.1145C74.1117 31.2111 74.6435 29.2102 73.7372 27.6499C73.4377 27.1348 73.0182 26.7316 72.5388 26.4479Z" fill="#00362E"/>
<path fill-rule="evenodd" clip-rule="evenodd" d="M19.2878 35.7281L19.3627 56.6325C19.3702 58.7454 21.1003 60.4551 23.2199 60.4476C24.0138 60.4476 24.7553 60.2013 25.3694 59.7831L43.2622 49.3981C45.0898 48.3305 45.7038 45.9937 44.6403 44.172C44.2809 43.5598 43.779 43.082 43.1948 42.761L25.0399 32.3983C23.2049 31.3456 20.8607 31.9803 19.8046 33.8094C19.4526 34.4141 19.2953 35.0786 19.2953 35.7281H19.2878Z" fill="#00362E"/>
<path fill-rule="evenodd" clip-rule="evenodd" d="M57.9934 82.278L78.545 70.3551C80.6272 69.1455 81.3312 66.4876 80.1179 64.4121C79.661 63.6357 79.002 63.046 78.2454 62.6876L57.8662 51.0557C55.784 49.8686 53.1251 50.5928 51.9343 52.6683C51.5299 53.3701 51.3501 54.1316 51.3651 54.8856L51.4475 78.5302C51.455 80.9266 53.4024 82.8603 55.8065 82.8529C56.6003 82.8529 57.3419 82.6363 57.986 82.2631L57.9934 82.278Z" fill="#00362E"/>
</svg>
