<svg width="143" height="46" viewBox="0 0 143 46" fill="none" xmlns="http://www.w3.org/2000/svg">
<path fill-rule="evenodd" clip-rule="evenodd" d="M33.5129 23.526L33.4924 17.3403C33.4924 16.713 32.9808 16.2082 32.3515 16.2082C32.1163 16.2082 31.8962 16.2797 31.7172 16.402L26.4225 19.477C25.8802 19.7932 25.7012 20.4867 26.0132 21.0221C26.1207 21.2057 26.269 21.3434 26.4429 21.4403L31.8144 24.5049C32.3566 24.8161 33.0525 24.6273 33.3645 24.0868C33.4617 23.9134 33.5077 23.7147 33.5129 23.526Z" fill="#00362E"/>
<path fill-rule="evenodd" clip-rule="evenodd" d="M10.8357 30.7721L17.9568 34.8363C18.6781 35.2493 19.5937 34.9995 20.0081 34.2805C20.1617 34.0101 20.223 33.7144 20.2026 33.4237L20.1719 25.3513C20.1667 24.5252 19.4915 23.8571 18.6627 23.8622C18.3814 23.8622 18.1204 23.9388 17.9004 24.0764L10.8306 28.1814C10.1144 28.5945 9.86876 29.5124 10.2883 30.2264C10.4264 30.4609 10.6157 30.6445 10.8357 30.7721Z" fill="#00362E"/>
<path fill-rule="evenodd" clip-rule="evenodd" d="M18.1295 5.91223L10.6657 10.2417C9.90852 10.6802 9.65273 11.644 10.0927 12.3987C10.2564 12.6792 10.4968 12.8934 10.7731 13.026L18.1705 17.2483C18.9276 17.6766 19.8944 17.4166 20.3242 16.6619C20.4674 16.4069 20.5339 16.1315 20.5339 15.8561L20.5032 7.26865C20.5032 6.40178 19.7921 5.69806 18.9224 5.69806C18.6308 5.70315 18.3597 5.77964 18.1295 5.91223Z" fill="#00362E"/>
<path fill-rule="evenodd" clip-rule="evenodd" d="M36.4081 6.96263L25.793 0.904443C24.7188 0.292504 23.3477 0.664766 22.7339 1.73565C22.5036 2.13852 22.4115 2.58218 22.4423 3.01053L22.4883 15.0504C22.4933 16.2794 23.5012 17.2737 24.734 17.2687C25.1485 17.2687 25.5372 17.1514 25.8698 16.9526L36.4133 10.8332C37.4825 10.2161 37.8457 8.84942 37.2267 7.78364C37.022 7.4318 36.7355 7.15643 36.4081 6.96263Z" fill="#00362E"/>
<path fill-rule="evenodd" clip-rule="evenodd" d="M0.0356445 13.3014L0.0868016 27.5799C0.0919174 29.023 1.27364 30.1909 2.72139 30.1857C3.26366 30.1857 3.77011 30.0175 4.1896 29.7318L16.411 22.6385C17.6593 21.9093 18.0787 20.3132 17.3523 19.0689C17.1068 18.6507 16.764 18.3243 16.365 18.1051L3.96451 11.027C2.71116 10.3079 1.10995 10.7415 0.388628 11.9908C0.14819 12.4039 0.0407602 12.8577 0.0407602 13.3014H0.0356445Z" fill="#00362E"/>
<path fill-rule="evenodd" clip-rule="evenodd" d="M26.473 45.0967L40.5105 36.9529C41.9327 36.1267 42.4136 34.3113 41.5849 32.8936C41.2728 32.3633 40.8227 31.9605 40.3059 31.7157L26.3861 23.7707C24.9639 22.9599 23.1478 23.4545 22.3344 24.8721C22.0582 25.3515 21.9354 25.8717 21.9457 26.3867L22.0019 42.5368C22.007 44.1737 23.3372 45.4944 24.9793 45.4893C25.5215 45.4893 26.028 45.3414 26.468 45.0865L26.473 45.0967Z" fill="#00362E"/>
<path d="M41.7493 14.2496H44.5578L46.3484 21.8683C46.4353 22.2048 46.5274 22.7811 46.64 23.6021H46.732C46.8394 22.7862 46.9367 22.2048 47.0236 21.8683L48.855 14.2496H52.0267L53.8377 21.8683C53.9094 22.1794 54.0065 22.7607 54.1293 23.6021H54.2213C54.3186 22.8321 54.4158 22.2558 54.513 21.8683L56.3598 14.2496H58.7845L55.49 26.6363H52.6458L50.5995 18.7474C50.492 18.3496 50.3897 17.7683 50.2925 16.9983H50.2209C50.0981 17.8295 49.9958 18.4108 49.9139 18.7474L47.9035 26.6363H45.0591L41.7493 14.2496Z" fill="#00362E"/>
<path d="M63.2712 24.8313C64.0795 24.8313 64.6678 24.6018 65.031 24.1378C65.3942 23.6738 65.5732 22.9751 65.5732 22.0367V21.7461C65.5732 20.8078 65.3891 20.1041 65.031 19.6451C64.6678 19.181 64.0845 18.9515 63.2712 18.9515C62.4629 18.9515 61.8797 19.181 61.5216 19.6451C61.1635 20.1092 60.9845 20.8078 60.9845 21.7461V22.0367C60.9845 22.9751 61.1635 23.6788 61.5216 24.1378C61.8797 24.6018 62.4629 24.8313 63.2712 24.8313ZM63.2712 26.8558C61.6392 26.8558 60.4268 26.4529 59.6288 25.6472C58.8307 24.8415 58.4316 23.587 58.4316 21.8941C58.4316 20.1958 58.8307 18.9464 59.6288 18.1408C60.4268 17.335 61.6392 16.9321 63.2712 16.9321C64.9031 16.9321 66.1206 17.335 66.9238 18.1408C67.7269 18.9464 68.1261 20.2009 68.1261 21.8941C68.1261 23.5921 67.7218 24.8415 66.9238 25.6472C66.1155 26.4529 64.8979 26.8558 63.2712 26.8558Z" fill="#00362E"/>
<path d="M69.4922 17.1414H71.6102L71.8095 18.6763H71.9377C72.1419 18.1357 72.4082 17.7073 72.7358 17.3962C73.0627 17.0852 73.4927 16.9271 74.0196 16.9271C74.3674 16.9271 74.6845 16.9832 74.9605 17.0903V19.4004H74.2754C73.4669 19.4004 72.8787 19.6197 72.5155 20.0582C72.1524 20.4967 71.9733 21.1648 71.9733 22.0521V26.6366H69.4922V17.1414Z" fill="#00362E"/>
<path d="M76.0808 14.2496H78.562V20.9147L81.7137 17.1411H84.5779L81.4272 20.7871L84.757 26.6414H81.913L79.8311 22.6128L78.562 23.8418V26.6414H76.0808V14.2496Z" fill="#00362E"/>
<path d="M106.442 24.8313C107.25 24.8313 107.838 24.6018 108.201 24.1378C108.564 23.6738 108.744 22.9751 108.744 22.0367V21.7461C108.744 20.8078 108.56 20.1041 108.201 19.6451C107.838 19.181 107.255 18.9515 106.442 18.9515C105.634 18.9515 105.05 19.181 104.692 19.6451C104.334 20.1092 104.155 20.8078 104.155 21.7461V22.0367C104.155 22.9751 104.334 23.6788 104.692 24.1378C105.05 24.6018 105.634 24.8313 106.442 24.8313ZM106.442 26.8558C104.81 26.8558 103.597 26.4529 102.8 25.6472C102.001 24.8415 101.603 23.587 101.603 21.8941C101.603 20.1958 102.001 18.9464 102.8 18.1408C103.597 17.335 104.81 16.9321 106.442 16.9321C108.074 16.9321 109.291 17.335 110.095 18.1408C110.897 18.9464 111.297 20.2009 111.297 21.8941C111.297 23.5921 110.892 24.8415 110.095 25.6472C109.286 26.4529 108.068 26.8558 106.442 26.8558Z" fill="#00362E"/>
<path d="M115.553 26.856C114.658 26.856 114.018 26.6163 113.635 26.1318C113.246 25.6525 113.056 25.0406 113.056 24.3063V19.166H111.916V17.1414H113.113L113.527 14.1684H115.537V17.1414H117.185V19.166H115.537V24.0615C115.537 24.5816 115.799 24.8366 116.315 24.8366H117.185V26.5704C116.98 26.6418 116.724 26.7081 116.412 26.7693C116.105 26.8254 115.819 26.856 115.553 26.856Z" fill="#00362E"/>
<path d="M127.449 24.8313C128.257 24.8313 128.845 24.6018 129.208 24.1378C129.572 23.6738 129.751 22.9751 129.751 22.0367V21.7461C129.751 20.8078 129.567 20.1041 129.208 19.6451C128.845 19.181 128.262 18.9515 127.449 18.9515C126.64 18.9515 126.057 19.181 125.699 19.6451C125.341 20.1092 125.162 20.8078 125.162 21.7461V22.0367C125.162 22.9751 125.341 23.6788 125.699 24.1378C126.057 24.6018 126.64 24.8313 127.449 24.8313ZM127.449 26.8558C125.817 26.8558 124.604 26.4529 123.806 25.6472C123.008 24.8415 122.609 23.587 122.609 21.8941C122.609 20.1958 123.008 18.9464 123.806 18.1408C124.604 17.335 125.817 16.9321 127.449 16.9321C129.08 16.9321 130.298 17.335 131.102 18.1408C131.904 18.9464 132.304 20.2009 132.304 21.8941C132.304 23.5921 131.899 24.8415 131.102 25.6472C130.293 26.4529 129.075 26.8558 127.449 26.8558Z" fill="#00362E"/>
<path d="M133.664 17.1412H135.782L135.967 18.3855H136.094C136.866 17.4115 137.858 16.9219 139.067 16.9219C140.043 16.9219 140.816 17.1871 141.373 17.7174C141.936 18.2478 142.218 19.0943 142.218 20.2621V26.6364H139.736V20.7873C139.736 20.1958 139.598 19.7725 139.316 19.5073C139.04 19.2422 138.631 19.1096 138.083 19.1096C137.526 19.1096 137.066 19.3034 136.698 19.6961C136.33 20.0887 136.146 20.5731 136.146 21.1494V26.6364H133.664V17.1412Z" fill="#00362E"/>
<path d="M84.2156 26.6417H87.024L88.8139 19.023C88.901 18.6865 88.993 18.1103 89.1064 17.2893H89.1984C89.3208 18.1306 89.4127 18.7069 89.485 19.023L91.2955 26.6417H94.467L96.2988 19.023C96.3801 18.6865 96.4779 18.1103 96.5904 17.2893H96.6824C96.7801 18.0593 96.8771 18.6355 96.974 19.023L98.8206 26.6417H101.246L97.9515 14.2551H96.5904H95.4289L93.418 22.1439C93.3367 22.4805 93.234 23.0669 93.1116 23.8981H93.0402C92.9433 23.1281 92.8406 22.5417 92.733 22.1439L90.6868 14.2551H89.2033H87.5153L84.2156 26.6417Z" fill="#00362E"/>
<path d="M121.222 17.1414H118.741V26.6417H121.222V17.1414Z" fill="#00362E"/>
<path fill-rule="evenodd" clip-rule="evenodd" d="M120.383 16.0856L121.657 13.8878C121.785 13.6634 121.708 13.3829 121.488 13.2503C121.407 13.2045 121.315 13.1841 121.222 13.1891H118.71C118.454 13.1891 118.245 13.3982 118.245 13.6532C118.245 13.7399 118.27 13.8214 118.311 13.8878L119.58 16.0804C119.708 16.3049 119.995 16.3813 120.214 16.2488C120.286 16.2131 120.342 16.1519 120.383 16.0856Z" fill="#00362E"/>
</svg>
